<?xml version="1.0" encoding="utf-8"?>
<!-- Generator: Adobe Illustrator 23.0.3, SVG Export Plug-In . SVG Version: 6.00 Build 0)  -->
<svg version="1.1" xmlns="http://www.w3.org/2000/svg" xmlns:xlink="http://www.w3.org/1999/xlink" x="0px" y="0px"
	 viewBox="0 0 1024 1024" style="enable-background:new 0 0 1024 1024;" xml:space="preserve">
<style type="text/css">
	.st1{
		fill:none;
		stroke-width:10;
	}
</style>
<g class="craton-logo st1">
	<g>
		<g>
			<path d="M512.57,36.57c65.8,0.02,129.8,13.7,190.23,40.67c28.89,12.89,56.72,28.8,82.72,47.29
				c25.7,18.27,49.78,39.17,71.55,62.12c21.62,22.79,41.1,47.73,57.87,74.11c16.94,26.64,31.23,54.92,42.48,84.07
				c23.48,60.82,33.68,124.29,30.31,188.65c-3.16,60.28-18.11,118.73-44.46,173.73c-25.48,53.21-60.5,100.97-104.08,141.98
				c-43.61,41.04-93.62,73.25-148.63,95.73C633.62,968.2,573.73,980,512.57,980c-61.49,0-121.59-11.93-178.64-35.46
				c-55.27-22.8-105.44-55.5-149.11-97.21c-43.76-41.78-78.9-90.59-104.44-145.08C53.95,645.88,38.92,585.71,35.71,523.4
				c-0.79-65.31,11.47-128.93,36.45-189.11c11.98-28.87,26.89-56.75,44.31-82.89c17.23-25.85,37.06-50.18,58.92-72.32
				c44.05-44.61,95.24-79.67,152.13-104.23c58.86-25.4,121.07-38.28,184.91-38.28H512.57 M512.44,26.57
				C244.86,26.58,22.3,251.05,25.71,523.71C39.04,784.27,255.97,989.99,512.57,990c255.59,0.01,471.95-204.09,485.14-456
				c14.15-270.27-210.18-507.35-485.14-507.43C512.52,26.57,512.49,26.57,512.44,26.57L512.44,26.57z"/>
		</g>
		<g>
			<path d="M101.99,448.66l214.59,58.2L46.99,530L101.99,448.66 M97.71,437.14L26.97,541.75L373.71,512L97.71,437.14L97.71,437.14z"
				/>
		</g>
		<g>
			<path d="M207.24,432.07l88.01,48.28l-147.6-40.03L207.24,432.07 M209.14,421.71L97.71,437.14l276,74.86L209.14,421.71
				L209.14,421.71z"/>
		</g>
		<g>
			<path d="M519.58,124.3l78.7,291.3l-223.8,85.41L223.3,418.08l156.95-246.87L519.58,124.3 M526.46,111.43l-152.74,51.43
				L209.14,421.71L373.71,512l236.57-90.29L526.46,111.43L526.46,111.43z"/>
		</g>
		<g>
			<path d="M547.23,149.97l114.75,129.58l-49.43,112.21L547.23,149.97 M526.46,111.43l83.83,310.29l63.43-144L526.46,111.43
				L526.46,111.43z"/>
		</g>
		<g>
			<path d="M737.1,280.02l-95.98,96.52l39.46-89.59L737.1,280.02 M764.57,266.57l-90.86,11.14l-63.43,144L764.57,266.57
				L764.57,266.57z"/>
		</g>
		<g>
			<path d="M763.19,282.15l80.95,117.01l-111.09,56.81l-104.66-38.28L763.19,282.15 M764.57,266.57L610.29,421.71l123.43,45.14
				l125.14-64L764.57,266.57L764.57,266.57z"/>
		</g>
		<g>
			<path d="M860.15,413.43l34.06,7.97l-86.96,19.08L860.15,413.43 M858.86,402.86l-125.14,64l205.71-45.14L858.86,402.86
				L858.86,402.86z"/>
		</g>
		<g>
			<path d="M610.36,432.39L718.67,472l-49.87,79.32l-257.13-43.1L610.36,432.39 M610.29,421.71L373.71,512l300,50.29l60-95.43
				L610.29,421.71L610.29,421.71z"/>
		</g>
		<g>
			<path d="M934.08,433.12l47.87,92.21l-289.06,25.24l47.06-74.85L934.08,433.12 M939.43,421.71l-205.71,45.14l-60,95.43l324-28.29
				L939.43,421.71L939.43,421.71z"/>
		</g>
		<path d="M974.25,657.32c0,0-238.48,110.68-447.79,43.82S63.95,689.96,63.95,689.96"/>
		<path d="M224.2,893.64c0,0,34.66-51.93,262.66-41.64s304.28,49.21,304.28,49.21"/>
	</g>
</g>
</svg>
